<?xml version="1.0" standalone="no"?>
<!DOCTYPE svg PUBLIC "-//W3C//DTD SVG 20010904//EN" "http://www.w3.org/TR/2001/REC-SVG-20010904/DTD/svg10.dtd">
<svg version="1.0" xmlns="http://www.w3.org/2000/svg" width="2602.000000pt" height="1611.000000pt" viewBox="0 0 2602.000000 1611.000000" preserveAspectRatio="xMidYMid meet">
<g transform="translate(0.000000,1611.000000) scale(0.100000,-0.100000)" fill="#FFFFFF" stroke="none">
<path d="M7975 14090 c-11 -5 -32 -9 -46 -9 -15 -1 -69 -15 -120 -32 -93 -30 -207 -87 -424 -209 -60 -34 -168 -95 -240 -135 -71 -40 -170 -95 -219 -124 -49 -28 -90 -51 -92 -51 -2 0 -25 -13 -51 -29 -27 -16 -115 -67 -198 -113 -227 -127 -1325 -757 -1365 -782 -19 -13 -62 -38 -95 -56 -69 -38 -659 -381 -875 -509 -80 -47 -154 -91 -165 -97 -239 -137 -684 -401 -802 -477 -197 -127 -379 -368 -476 -632 -56 -154 -62 -222 -72 -810 -3 -176 -7 -401 -10 -500 -12 -448 -14 -1709 -5 -2415 21 -1452 25 -1628 43 -1700 43 -170 125 -349 219 -475 81 -109 213 -235 313 -299 50 -31 185 -112 300 -180 116 -67 305 -178 420 -245 325 -191 363 -213 800 -466 226 -131 446 -259 490 -285 44 -25 220 -127 390 -225 171 -98 362 -209 425 -246 63 -37 311 -181 550 -321 428 -251 541 -316 610 -356 19 -11 94 -54 165 -97 218 -129 300 -165 458 -200 63 -14 111 -16 250 -12 281 8 357 36 817 302 69 40 148 85 175 100 47 26 483 278 735 425 183 107 794 460 920 532 63 36 169 97 235 135 66 38 140 81 165 95 25 14 212 122 415 240 379 220 610 354 725 418 36 20 88 49 115 65 28 15 62 36 77 46 14 11 28 19 31 19 3 0 67 37 143 81 77 45 146 84 154 87 8 3 48 25 88 49 79 47 93 50 112 28 7 -8 16 -15 20 -15 10 0 202 -109 535 -304 132 -77 254 -147 270 -156 31 -16 202 -117 625 -369 135 -80 253 -150 263 -156 67 -38 637 -376 842 -498 138 -83 340 -203 450 -267 110 -64 308 -181 440 -260 132 -78 418 -248 635 -377 217 -129 402 -239 410 -244 8 -5 71 -43 139 -84 l125 -75 35 21 c50 30 625 360 686 394 56 31 404 231 740 425 121 70 405 233 630 362 226 130 514 295 640 368 127 73 325 187 440 253 391 224 1025 595 1115 652 19 12 175 104 345 205 171 101 328 197 350 213 194 146 333 397 391 707 17 89 18 251 22 2663 3 2566 3 2568 -17 2677 -54 279 -187 481 -436 661 -46 33 -290 179 -300 179 -3 0 -37 20 -77 44 -84 50 -578 333 -681 390 -26 14 -152 86 -280 160 -227 131 -422 242 -502 286 -22 12 -44 26 -50 30 -5 4 -35 21 -65 37 -30 17 -110 62 -177 102 -68 39 -125 71 -128 71 -3 0 -22 11 -43 24 -20 13 -183 108 -362 211 -179 104 -376 218 -438 254 -61 36 -147 86 -190 110 -42 25 -126 74 -187 109 -60 36 -125 73 -143 84 -18 10 -103 60 -188 111 -642 382 -648 385 -833 432 -184 46 -334 51 -521 14 -136 -27 -315 -105 -558 -245 -52 -30 -96 -54 -98 -54 -3 0 -30 -16 -60 -35 -30 -19 -56 -35 -59 -35 -2 0 -28 -14 -57 -32 -57 -34 -177 -102 -383 -218 -124 -70 -243 -139 -275 -160 -8 -6 -26 -16 -40 -23 -25 -12 -302 -169 -377 -214 -21 -13 -44 -26 -52 -29 -8 -4 -64 -36 -125 -72 -60 -35 -132 -76 -159 -90 -28 -15 -57 -32 -66 -37 -9 -6 -70 -41 -136 -78 -66 -37 -127 -72 -135 -77 -22 -13 -199 -113 -250 -142 -148 -83 -595 -339 -870 -498 -93 -53 -410 -235 -975 -558 -269 -153 -541 -309 -604 -346 -62 -36 -115 -66 -116 -66 -2 0 -33 -18 -69 -40 -37 -22 -90 -53 -119 -69 -28 -16 -117 -67 -197 -113 -322 -188 -522 -304 -655 -380 -77 -45 -169 -99 -204 -120 -35 -22 -82 -50 -105 -62 -22 -13 -93 -53 -156 -91 -63 -37 -167 -98 -230 -135 -155 -90 -882 -526 -1100 -660 -448 -274 -697 -386 -990 -447 -131 -27 -410 -25 -557 5 -267 54 -482 152 -803 370 -270 184 -520 350 -605 403 -116 73 -317 195 -375 227 -25 13 -52 30 -60 37 -21 16 -455 266 -645 370 -27 15 -54 31 -60 35 -5 4 -41 24 -80 45 -38 21 -128 70 -200 110 -181 101 -312 171 -439 235 -60 30 -109 59 -110 63 -1 5 23 22 52 38 53 29 585 338 652 378 19 11 42 24 50 28 8 3 56 30 105 58 50 28 113 64 140 79 28 16 127 72 220 126 297 170 586 333 750 424 87 49 296 168 413 235 68 39 125 71 127 71 2 0 52 28 112 63 59 35 133 77 163 93 30 17 120 67 200 111 80 45 174 98 210 117 36 20 121 65 189 99 l124 62 156 -1 c230 0 216 4 646 -218 372 -192 557 -290 741 -392 72 -40 167 -92 210 -115 44 -23 96 -53 116 -66 21 -13 40 -23 43 -23 5 0 79 -42 325 -185 30 -18 112 -66 181 -108 246 -147 326 -177 475 -177 197 0 354 91 455 265 47 80 83 157 107 230 23 69 94 337 90 340 -3 2 -231 133 -318 183 -25 14 -61 36 -80 49 -19 12 -39 23 -43 23 -5 0 -21 8 -35 18 -25 18 -79 48 -192 110 -25 13 -85 48 -135 76 -49 29 -151 87 -225 128 -74 41 -227 127 -340 190 -213 120 -261 147 -370 206 -36 19 -90 50 -120 67 -54 31 -133 75 -255 140 -58 31 -98 53 -195 107 -25 14 -70 39 -100 55 -30 16 -89 48 -130 71 -377 205 -507 267 -604 286 -84 17 -336 21 -371 6z m10464 -1504 c13 -11 282 -164 426 -242 84 -45 317 -176 485 -271 96 -55 200 -114 230 -130 30 -17 145 -82 255 -145 317 -182 725 -398 751 -398 22 0 484 -235 652 -332 46 -26 86 -48 88 -48 6 0 236 -153 277 -184 169 -128 294 -250 361 -350 89 -134 186 -390 186 -492 0 -18 5 -36 10 -39 6 -4 10 -56 10 -124 0 -69 4 -121 11 -128 7 -7 8 -56 4 -144 -3 -74 -8 -208 -10 -299 -3 -91 -10 -174 -15 -185 -5 -11 -12 -74 -15 -140 -13 -301 -17 -361 -26 -369 -5 -6 -9 -83 -9 -172 0 -90 -4 -165 -8 -168 -5 -3 -11 -447 -15 -986 -3 -540 -8 -984 -11 -987 -3 -3 -11 -1 -18 5 -7 5 -44 27 -83 47 -100 54 -139 76 -235 132 -78 46 -197 115 -530 308 -69 40 -176 102 -239 139 -62 36 -115 66 -117 66 -2 0 -27 15 -56 33 -29 19 -60 37 -68 40 -8 4 -28 15 -45 25 -16 10 -52 31 -78 46 -27 14 -205 118 -395 230 -393 231 -523 306 -529 306 -2 0 -29 16 -59 35 -30 19 -57 35 -61 35 -3 0 -38 20 -77 43 -39 24 -179 106 -311 182 -132 76 -256 148 -275 160 -43 27 -76 47 -205 121 -129 75 -160 99 -194 148 -36 52 -81 172 -81 213 0 18 -4 35 -10 38 -11 7 -15 3977 -3 3988 9 10 14 9 32 -7z m-1219 -2021 c0 -1214 -4 -2032 -9 -2043 -5 -9 -19 -42 -30 -72 -34 -88 -96 -158 -187 -211 -43 -25 -171 -99 -284 -163 -113 -65 -306 -176 -429 -247 -123 -71 -225 -129 -228 -129 -2 0 -20 -11 -41 -24 -34 -21 -324 -189 -832 -481 -113 -65 -241 -139 -285 -165 -44 -26 -98 -57 -120 -69 -22 -12 -47 -25 -55 -31 -44 -27 -438 -255 -515 -298 -49 -27 -125 -70 -168 -96 -43 -25 -81 -46 -83 -46 -9 0 -4 3399 6 3405 6 4 10 157 10 426 0 389 1 420 17 426 10 4 70 37 133 73 63 37 135 78 160 92 55 31 485 278 830 478 140 81 397 228 570 327 173 99 455 260 625 358 171 97 324 185 340 194 55 30 309 174 435 247 69 40 128 73 133 73 4 1 7 -910 7 -2024z m-4492 -2581 c2 -1116 0 -2069 -3 -2119 l-7 -90 -115 -65 c-188 -105 -206 -116 -570 -324 -191 -110 -412 -237 -491 -283 -79 -45 -145 -83 -148 -83 -2 0 -95 -53 -207 -118 -111 -65 -281 -163 -377 -217 -96 -55 -260 -148 -365 -208 -104 -60 -313 -179 -463 -265 -150 -87 -290 -166 -310 -178 -20 -11 -174 -99 -342 -195 -420 -241 -609 -349 -612 -349 -2 0 -2 914 -1 2031 3 2289 -4 2091 83 2195 67 78 98 100 375 259 55 31 187 107 292 169 106 61 216 124 245 140 29 15 159 90 288 165 129 76 348 202 485 281 138 79 275 158 305 175 30 18 163 95 295 170 132 76 339 195 460 265 113 65 248 143 300 173 52 30 163 93 245 139 83 46 159 93 170 104 11 10 24 18 30 16 7 -3 11 -664 13 -2033z m-8678 1755 c107 -61 213 -121 235 -133 60 -34 372 -214 435 -251 30 -18 75 -44 100 -57 25 -14 122 -69 215 -123 94 -54 184 -106 202 -116 17 -10 50 -29 72 -43 22 -15 43 -26 46 -26 2 0 69 -38 147 -84 79 -46 211 -122 293 -169 83 -47 191 -109 240 -137 50 -29 209 -121 355 -205 333 -192 945 -548 987 -574 34 -22 113 -151 113 -187 0 -11 5 -25 12 -32 8 -8 11 -72 11 -214 -1 -112 3 -208 8 -214 8 -10 14 -3672 5 -3681 -2 -2 -23 9 -47 25 -24 17 -118 71 -209 122 -134 76 -601 344 -660 380 -32 19 -126 75 -145 85 -11 7 -54 31 -95 55 -41 23 -136 77 -210 120 -240 136 -561 320 -715 409 -154 90 -210 122 -280 161 -117 65 -213 121 -330 190 -71 43 -197 116 -280 162 -387 220 -622 361 -642 385 -12 14 -27 47 -33 72 -6 25 -16 54 -21 63 -5 10 -9 36 -9 57 0 22 -4 43 -10 46 -7 4 -10 687 -10 2016 0 1626 2 2009 13 2009 7 0 100 -50 207 -111z m13921 -2473 c52 -25 132 -66 179 -92 233 -127 684 -379 840 -469 36 -21 94 -54 130 -75 36 -20 84 -48 107 -63 24 -15 44 -27 47 -27 2 0 65 -36 141 -80 76 -44 139 -80 141 -80 1 0 24 -13 51 -29 26 -16 275 -158 553 -316 510 -290 644 -367 758 -437 35 -21 65 -38 68 -38 3 0 30 -16 60 -35 30 -19 56 -35 59 -35 2 0 37 -20 77 -44 40 -24 128 -76 196 -116 68 -39 121 -74 119 -76 -5 -6 -668 -393 -767 -448 -77 -44 -560 -321 -845 -486 -207 -120 -968 -556 -1020 -585 -22 -12 -130 -73 -240 -135 -286 -161 -374 -210 -379 -210 -3 0 -42 -22 -88 -48 -164 -94 -232 -111 -384 -92 -168 20 -185 28 -579 245 -45 25 -627 362 -665 385 -34 21 -109 65 -380 223 -157 92 -292 171 -300 176 -38 24 -466 279 -500 298 -14 8 -38 22 -55 32 -49 30 -622 369 -720 426 -256 149 -409 242 -412 250 -1 6 73 52 165 102 154 86 338 191 662 378 69 40 145 83 170 97 25 14 110 63 190 108 80 46 163 93 185 105 35 19 393 224 1280 733 149 86 290 166 315 180 25 13 74 41 110 62 36 20 88 50 115 65 28 15 77 42 110 61 99 55 304 123 401 133 6 0 54 -19 105 -43z"/>
</g>
</svg>
